<mxfile host="app.diagrams.net" modified="2021-02-15T05:33:36.428Z" agent="5.0 (Windows NT 10.0; Win64; x64) AppleWebKit/537.36 (KHTML, like Gecko) Chrome/83.0.4103.106 Whale/2.8.108.15 Safari/537.36" etag="A1ocEKl92eKTfAa6AXr3" version="14.3.1" type="github">
  <diagram name="Page-1" id="c37626ed-c26b-45fb-9056-f9ebc6bb27b6">
    <mxGraphModel dx="1372" dy="760" grid="1" gridSize="10" guides="1" tooltips="1" connect="1" arrows="1" fold="1" page="1" pageScale="1" pageWidth="1100" pageHeight="850" background="#ffffff" math="0" shadow="0">
      <root>
        <mxCell id="0" />
        <mxCell id="1" parent="0" />
        <mxCell id="PGmoRe2I9fGTlqErwEuf-35" value="" style="rounded=0;whiteSpace=wrap;html=1;" vertex="1" parent="1">
          <mxGeometry x="40" y="20" width="750" height="660" as="geometry" />
        </mxCell>
        <mxCell id="PGmoRe2I9fGTlqErwEuf-1" value="" style="rounded=0;whiteSpace=wrap;html=1;" vertex="1" parent="1">
          <mxGeometry x="370" y="90" width="320" height="230" as="geometry" />
        </mxCell>
        <mxCell id="PGmoRe2I9fGTlqErwEuf-2" value="Web Server / NAS" style="text;strokeColor=none;fillColor=none;html=1;fontSize=24;fontStyle=1;verticalAlign=middle;align=center;" vertex="1" parent="1">
          <mxGeometry x="490" y="110" width="100" height="40" as="geometry" />
        </mxCell>
        <mxCell id="PGmoRe2I9fGTlqErwEuf-3" value="" style="rounded=0;whiteSpace=wrap;html=1;" vertex="1" parent="1">
          <mxGeometry x="60" y="380" width="290" height="200" as="geometry" />
        </mxCell>
        <mxCell id="PGmoRe2I9fGTlqErwEuf-4" value="git" style="text;strokeColor=none;fillColor=none;html=1;fontSize=24;fontStyle=1;verticalAlign=middle;align=center;" vertex="1" parent="1">
          <mxGeometry x="140" y="375" width="100" height="40" as="geometry" />
        </mxCell>
        <mxCell id="PGmoRe2I9fGTlqErwEuf-5" value="" style="rounded=0;whiteSpace=wrap;html=1;" vertex="1" parent="1">
          <mxGeometry x="450" y="375" width="320" height="240" as="geometry" />
        </mxCell>
        <mxCell id="PGmoRe2I9fGTlqErwEuf-6" value="DB server" style="text;strokeColor=none;fillColor=none;html=1;fontSize=24;fontStyle=1;verticalAlign=middle;align=center;" vertex="1" parent="1">
          <mxGeometry x="630" y="390" width="100" height="40" as="geometry" />
        </mxCell>
        <mxCell id="PGmoRe2I9fGTlqErwEuf-7" value="database" style="shape=datastore;whiteSpace=wrap;html=1;" vertex="1" parent="1">
          <mxGeometry x="680" y="520" width="40" height="60" as="geometry" />
        </mxCell>
        <mxCell id="PGmoRe2I9fGTlqErwEuf-27" style="edgeStyle=orthogonalEdgeStyle;rounded=0;orthogonalLoop=1;jettySize=auto;html=1;exitX=0.5;exitY=1;exitDx=0;exitDy=0;exitPerimeter=0;endArrow=none;endFill=0;strokeWidth=4;" edge="1" parent="1" source="PGmoRe2I9fGTlqErwEuf-8" target="PGmoRe2I9fGTlqErwEuf-7">
          <mxGeometry relative="1" as="geometry">
            <Array as="points">
              <mxPoint x="660" y="483" />
              <mxPoint x="660" y="550" />
            </Array>
          </mxGeometry>
        </mxCell>
        <mxCell id="PGmoRe2I9fGTlqErwEuf-8" value="180.83.98.144&amp;nbsp; 3306" style="shape=mxgraph.cisco.routers.router;html=1;pointerEvents=1;dashed=0;fillColor=#036897;strokeColor=#ffffff;strokeWidth=2;verticalLabelPosition=bottom;verticalAlign=top;align=center;outlineConnect=0;" vertex="1" parent="1">
          <mxGeometry x="461" y="430" width="78" height="53" as="geometry" />
        </mxCell>
        <mxCell id="PGmoRe2I9fGTlqErwEuf-19" style="edgeStyle=orthogonalEdgeStyle;rounded=0;orthogonalLoop=1;jettySize=auto;html=1;entryX=0.13;entryY=0.5;entryDx=0;entryDy=0;entryPerimeter=0;endArrow=none;endFill=0;strokeWidth=4;" edge="1" parent="1" source="PGmoRe2I9fGTlqErwEuf-9" target="PGmoRe2I9fGTlqErwEuf-18">
          <mxGeometry relative="1" as="geometry" />
        </mxCell>
        <mxCell id="PGmoRe2I9fGTlqErwEuf-22" style="edgeStyle=orthogonalEdgeStyle;rounded=0;orthogonalLoop=1;jettySize=auto;html=1;exitX=0.5;exitY=1;exitDx=0;exitDy=0;exitPerimeter=0;entryX=0.4;entryY=0.1;entryDx=0;entryDy=0;entryPerimeter=0;endArrow=none;endFill=0;strokeWidth=4;" edge="1" parent="1" source="PGmoRe2I9fGTlqErwEuf-9" target="PGmoRe2I9fGTlqErwEuf-21">
          <mxGeometry relative="1" as="geometry" />
        </mxCell>
        <mxCell id="PGmoRe2I9fGTlqErwEuf-9" value="115.138.105.47&amp;nbsp; 3000" style="shape=mxgraph.cisco.routers.router;html=1;pointerEvents=1;dashed=0;fillColor=#036897;strokeColor=#ffffff;strokeWidth=2;verticalLabelPosition=bottom;verticalAlign=top;align=center;outlineConnect=0;" vertex="1" parent="1">
          <mxGeometry x="460" y="170" width="78" height="53" as="geometry" />
        </mxCell>
        <mxCell id="PGmoRe2I9fGTlqErwEuf-25" style="edgeStyle=orthogonalEdgeStyle;rounded=0;orthogonalLoop=1;jettySize=auto;html=1;exitX=0.83;exitY=0.5;exitDx=0;exitDy=0;exitPerimeter=0;endArrow=none;endFill=0;strokeWidth=4;" edge="1" parent="1" source="PGmoRe2I9fGTlqErwEuf-14" target="PGmoRe2I9fGTlqErwEuf-20">
          <mxGeometry relative="1" as="geometry" />
        </mxCell>
        <mxCell id="PGmoRe2I9fGTlqErwEuf-14" value="개인 작업 pc" style="shape=mxgraph.cisco.computers_and_peripherals.pc;html=1;pointerEvents=1;dashed=0;fillColor=#036897;strokeColor=#ffffff;strokeWidth=2;verticalLabelPosition=bottom;verticalAlign=top;align=center;outlineConnect=0;" vertex="1" parent="1">
          <mxGeometry x="90" y="473" width="78" height="70" as="geometry" />
        </mxCell>
        <mxCell id="PGmoRe2I9fGTlqErwEuf-18" value="node.js web server" style="shape=mxgraph.cisco.servers.www_server;html=1;pointerEvents=1;dashed=0;fillColor=#036897;strokeColor=#ffffff;strokeWidth=2;verticalLabelPosition=bottom;verticalAlign=top;align=center;outlineConnect=0;" vertex="1" parent="1">
          <mxGeometry x="590" y="163" width="66" height="67" as="geometry" />
        </mxCell>
        <mxCell id="PGmoRe2I9fGTlqErwEuf-20" value="commit save&lt;br&gt;github" style="shape=mxgraph.cisco.servers.fileserver;html=1;pointerEvents=1;dashed=0;fillColor=#036897;strokeColor=#ffffff;strokeWidth=2;verticalLabelPosition=bottom;verticalAlign=top;align=center;outlineConnect=0;" vertex="1" parent="1">
          <mxGeometry x="210" y="415" width="73" height="80" as="geometry" />
        </mxCell>
        <mxCell id="PGmoRe2I9fGTlqErwEuf-23" style="edgeStyle=orthogonalEdgeStyle;rounded=0;orthogonalLoop=1;jettySize=auto;html=1;exitX=0.8;exitY=0.8;exitDx=0;exitDy=0;exitPerimeter=0;entryX=0.5;entryY=0;entryDx=0;entryDy=0;entryPerimeter=0;endArrow=none;endFill=0;strokeWidth=4;" edge="1" parent="1" source="PGmoRe2I9fGTlqErwEuf-21" target="PGmoRe2I9fGTlqErwEuf-8">
          <mxGeometry relative="1" as="geometry" />
        </mxCell>
        <mxCell id="PGmoRe2I9fGTlqErwEuf-26" style="edgeStyle=orthogonalEdgeStyle;rounded=0;orthogonalLoop=1;jettySize=auto;html=1;exitX=0.13;exitY=0.77;exitDx=0;exitDy=0;exitPerimeter=0;entryX=1;entryY=0;entryDx=0;entryDy=0;entryPerimeter=0;endArrow=none;endFill=0;strokeWidth=4;" edge="1" parent="1" source="PGmoRe2I9fGTlqErwEuf-21" target="PGmoRe2I9fGTlqErwEuf-20">
          <mxGeometry relative="1" as="geometry" />
        </mxCell>
        <mxCell id="PGmoRe2I9fGTlqErwEuf-21" value="Internet" style="ellipse;shape=cloud;whiteSpace=wrap;html=1;" vertex="1" parent="1">
          <mxGeometry x="380" y="295" width="120" height="80" as="geometry" />
        </mxCell>
        <mxCell id="PGmoRe2I9fGTlqErwEuf-37" value="Web service" style="text;strokeColor=none;fillColor=none;html=1;fontSize=24;fontStyle=1;verticalAlign=middle;align=center;" vertex="1" parent="1">
          <mxGeometry x="375" y="30" width="100" height="40" as="geometry" />
        </mxCell>
        <mxCell id="PGmoRe2I9fGTlqErwEuf-38" value="" style="rounded=0;whiteSpace=wrap;html=1;" vertex="1" parent="1">
          <mxGeometry x="900" y="260" width="230" height="257" as="geometry" />
        </mxCell>
        <mxCell id="PGmoRe2I9fGTlqErwEuf-40" value="remote" style="text;strokeColor=none;fillColor=none;html=1;fontSize=24;fontStyle=1;verticalAlign=middle;align=center;" vertex="1" parent="1">
          <mxGeometry x="965" y="260" width="100" height="40" as="geometry" />
        </mxCell>
        <mxCell id="PGmoRe2I9fGTlqErwEuf-43" style="edgeStyle=orthogonalEdgeStyle;rounded=0;orthogonalLoop=1;jettySize=auto;html=1;exitX=0.5;exitY=1;exitDx=0;exitDy=0;exitPerimeter=0;endArrow=none;endFill=0;strokeWidth=4;" edge="1" parent="1" source="PGmoRe2I9fGTlqErwEuf-41" target="PGmoRe2I9fGTlqErwEuf-42">
          <mxGeometry relative="1" as="geometry">
            <Array as="points">
              <mxPoint x="974" y="400" />
              <mxPoint x="1034" y="400" />
            </Array>
          </mxGeometry>
        </mxCell>
        <mxCell id="PGmoRe2I9fGTlqErwEuf-44" style="edgeStyle=orthogonalEdgeStyle;rounded=0;orthogonalLoop=1;jettySize=auto;html=1;exitX=0;exitY=0.5;exitDx=0;exitDy=0;exitPerimeter=0;endArrow=none;endFill=0;strokeWidth=4;" edge="1" parent="1" source="PGmoRe2I9fGTlqErwEuf-41" target="PGmoRe2I9fGTlqErwEuf-35">
          <mxGeometry relative="1" as="geometry">
            <Array as="points">
              <mxPoint x="970" y="350" />
            </Array>
          </mxGeometry>
        </mxCell>
        <mxCell id="PGmoRe2I9fGTlqErwEuf-41" value="" style="shape=mxgraph.cisco.routers.router;html=1;pointerEvents=1;dashed=0;fillColor=#036897;strokeColor=#ffffff;strokeWidth=2;verticalLabelPosition=bottom;verticalAlign=top;align=center;outlineConnect=0;" vertex="1" parent="1">
          <mxGeometry x="940" y="320" width="78" height="53" as="geometry" />
        </mxCell>
        <mxCell id="PGmoRe2I9fGTlqErwEuf-42" value="개인 작업 pc" style="shape=mxgraph.cisco.computers_and_peripherals.pc;html=1;pointerEvents=1;dashed=0;fillColor=#036897;strokeColor=#ffffff;strokeWidth=2;verticalLabelPosition=bottom;verticalAlign=top;align=center;outlineConnect=0;" vertex="1" parent="1">
          <mxGeometry x="995" y="420" width="78" height="70" as="geometry" />
        </mxCell>
      </root>
    </mxGraphModel>
  </diagram>
</mxfile>
